<?xml version="1.0" standalone="no"?>
<!DOCTYPE svg PUBLIC "-//W3C//DTD SVG 20010904//EN"
 "http://www.w3.org/TR/2001/REC-SVG-20010904/DTD/svg10.dtd">
<svg version="1.0" xmlns="http://www.w3.org/2000/svg"
 width="884.000000pt" height="1280.000000pt" viewBox="0 0 884.000000 1280.000000"
 preserveAspectRatio="xMidYMid meet">
<metadata>
Created by potrace 1.15, written by Peter Selinger 2001-2017
</metadata>
<g transform="translate(0.000000,1280.000000) scale(0.100000,-0.100000)"
fill="#000000" stroke="none">
<path d="M5170 12754 c-199 -77 -392 -145 -470 -167 -71 -20 -99 -21 -505 -22
-491 0 -449 6 -670 -99 -126 -60 -208 -111 -247 -152 -118 -126 -137 -141
-263 -209 -441 -238 -940 -664 -1232 -1050 -223 -296 -320 -519 -384 -885 -24
-138 -62 -283 -84 -317 -21 -32 -10 -49 48 -70 77 -27 80 -36 88 -313 12 -390
22 -444 140 -773 117 -327 140 -376 217 -461 138 -151 247 -346 193 -346 -5 0
-30 17 -57 37 -126 96 -289 61 -289 -63 0 -52 15 -66 61 -58 26 5 35 0 67 -35
92 -102 149 -280 181 -571 33 -294 88 -484 150 -525 48 -32 79 14 52 78 -8 20
-34 55 -57 78 l-43 42 43 36 c40 34 43 40 39 77 -3 21 -13 68 -23 104 -20 76
-17 135 20 306 39 176 36 195 -37 287 -39 51 -50 97 -23 97 53 0 146 -94 164
-166 20 -80 30 -283 37 -759 7 -520 -2 -720 -37 -799 l-20 -47 20 -81 c40
-159 122 -760 151 -1114 13 -168 14 -441 1 -476 -8 -20 -31 -38 -89 -67 -43
-22 -159 -87 -258 -146 -230 -136 -742 -392 -859 -429 -107 -34 -139 -46 -315
-123 -74 -33 -232 -95 -350 -138 -329 -119 -384 -147 -418 -215 -10 -21 -34
-44 -60 -59 -24 -13 -46 -30 -49 -39 -9 -23 33 -52 77 -52 53 0 102 -18 126
-47 30 -35 107 -51 314 -63 376 -23 433 -34 524 -104 58 -44 101 -67 189 -100
126 -47 231 -130 319 -251 69 -94 138 -155 254 -221 167 -96 211 -129 315
-236 68 -70 113 -108 127 -108 11 0 34 -11 49 -24 40 -34 40 -106 1 -162 -34
-49 -35 -74 -5 -102 50 -47 112 -60 229 -47 55 6 72 5 93 -9 32 -21 32 -46 -2
-97 -29 -44 -34 -89 -12 -115 27 -33 75 -44 186 -44 127 0 137 -5 184 -87 47
-81 93 -128 161 -165 63 -33 83 -58 75 -90 -9 -32 33 -64 114 -88 144 -41 159
-54 159 -131 0 -81 42 -117 151 -129 37 -4 93 -16 125 -26 94 -29 271 -123
426 -227 79 -52 163 -101 187 -108 49 -15 71 -50 71 -114 0 -126 87 -150 221
-61 114 76 172 92 218 60 22 -16 23 -21 17 -81 -11 -105 15 -116 134 -56 48
23 100 62 149 108 78 74 130 106 247 150 87 33 127 57 191 117 124 115 330
158 763 158 113 0 255 5 315 10 105 10 215 36 215 50 0 4 -55 10 -122 13 -166
7 -240 34 -207 73 25 30 91 52 237 79 150 27 260 61 293 91 14 13 20 29 18 54
-1 19 1 44 4 56 11 33 91 69 247 113 80 23 162 49 183 58 41 18 67 56 67 97 0
37 51 73 148 102 162 49 260 93 247 113 -2 5 -23 11 -46 14 -127 17 -60 97 98
117 86 11 102 20 96 54 -9 45 61 140 144 196 l48 32 139 -6 c134 -7 139 -6
162 15 13 12 24 30 24 39 0 10 9 29 21 44 18 23 27 26 72 24 46 -3 52 -1 55
17 5 36 -39 88 -99 118 -39 20 -81 30 -140 37 -46 4 -122 18 -169 30 -193 49
-970 319 -1086 378 -33 17 -94 55 -137 86 -103 74 -148 99 -255 145 -128 55
-224 125 -391 286 -172 165 -250 231 -349 296 -113 74 -168 117 -186 145 -17
24 -16 27 24 102 23 42 86 140 140 217 228 328 478 716 561 870 51 96 111 289
175 564 38 165 43 243 16 282 -9 15 -30 45 -45 68 -15 23 -30 55 -34 71 -7 39
-26 54 -51 41 -26 -14 -49 -102 -62 -241 -25 -267 -31 -315 -46 -380 -9 -40
-28 -87 -45 -112 -92 -131 -184 -276 -238 -373 -100 -179 -104 -221 -18 -198
23 7 46 8 51 3 13 -13 -59 -148 -125 -230 -33 -41 -96 -129 -141 -195 -325
-477 -678 -864 -878 -963 -54 -27 -57 -27 -245 -25 -318 2 -624 45 -1071 148
-23 5 -445 445 -617 643 -352 406 -819 1006 -885 1137 -44 88 -73 320 -93 731
-15 309 -9 361 49 437 57 75 58 84 17 161 -19 36 -32 67 -27 67 19 3 54 -5
142 -32 52 -16 104 -29 115 -29 60 0 59 63 -4 311 -62 246 -75 346 -75 594 1
503 70 695 398 1105 156 193 160 204 151 333 -6 91 -4 110 15 162 32 91 35
105 17 105 -27 0 -47 30 -47 71 0 45 16 57 52 38 13 -7 111 -98 218 -204 245
-240 309 -281 364 -233 19 17 30 41 41 98 22 106 58 173 134 250 144 145 378
258 700 340 624 157 1471 219 1925 140 129 -23 186 -20 247 11 46 23 96 80
121 138 27 63 37 74 55 59 32 -26 120 -251 111 -280 -3 -8 -36 -12 -104 -13
-95 0 -102 -2 -174 -39 l-75 -39 64 -22 c91 -30 103 -49 112 -182 16 -212 29
-668 20 -703 -22 -89 -43 -100 -209 -111 -140 -9 -172 -22 -172 -68 0 -51 15
-55 173 -45 194 12 249 10 280 -11 33 -21 95 -114 103 -153 8 -41 -12 -46
-115 -25 -158 32 -724 21 -915 -18 -45 -10 -60 -20 -126 -88 -120 -124 -298
-389 -350 -521 -28 -70 -24 -127 31 -450 67 -396 139 -733 160 -746 13 -8 14
12 14 468 0 384 1 419 18 435 14 14 34 17 110 17 75 0 106 -6 167 -28 266 -98
440 -147 399 -114 -9 8 -78 47 -152 87 -149 81 -204 121 -193 139 9 15 112 16
227 1 97 -13 157 -6 166 18 9 23 -32 53 -73 53 -18 0 -36 5 -39 10 -10 16 41
161 75 213 22 36 38 48 68 57 45 12 60 36 37 59 -13 13 -37 16 -128 14 -169
-3 -247 23 -247 83 0 36 60 107 115 134 47 24 60 25 252 29 292 5 366 -11 429
-94 21 -28 29 -51 32 -93 4 -71 -17 -114 -79 -159 -106 -78 -101 -72 -96 -122
2 -25 14 -84 27 -130 30 -112 25 -181 -20 -281 -48 -108 -50 -160 -9 -306 l33
-119 19 65 c54 185 67 227 80 244 14 19 15 19 27 -5 10 -17 13 -66 13 -164 -1
-149 -10 -239 -44 -456 -25 -153 -22 -189 16 -189 50 0 61 40 115 410 36 249
64 388 90 448 18 41 18 72 -1 72 -15 0 -10 54 10 112 44 128 201 437 314 620
74 119 132 188 158 188 10 0 34 -13 52 -30 19 -16 39 -30 45 -30 13 0 25 83
17 120 -8 38 11 173 31 211 8 17 31 51 49 75 19 25 39 62 45 83 11 42 55 87
132 136 l46 29 -54 78 c-95 134 -133 256 -120 380 13 131 63 156 103 53 13
-33 32 -68 43 -79 16 -17 21 -17 36 -5 13 11 15 25 11 74 -6 74 -37 168 -121
363 -70 164 -116 297 -116 340 0 49 -60 264 -140 502 -91 271 -130 368 -205
500 -29 52 -74 149 -99 215 -84 219 -160 388 -221 495 -176 305 -272 462 -322
522 -53 65 -137 132 -157 125 -15 -5 -25 -48 -47 -208 -22 -162 -38 -230 -57
-237 -33 -11 -44 130 -28 389 l8 146 -98 52 c-134 70 -179 107 -206 163 -17
39 -29 51 -63 63 -49 19 -137 23 -269 11 -111 -10 -119 -6 -105 53 12 50 11
108 -1 132 -17 31 -70 24 -155 -21 -93 -49 -152 -54 -190 -15 -14 13 -25 36
-25 50 0 38 -77 113 -184 180 -49 30 -92 55 -95 54 -3 0 -58 -20 -121 -45z
m664 -293 c5 -8 -15 -43 -65 -111 -18 -23 -25 -27 -36 -18 -23 19 -35 47 -28
69 13 41 113 87 129 60z m-1065 -54 c23 -25 18 -36 -23 -51 -25 -9 -96 12
-103 30 -17 46 86 63 126 21z m-479 -272 c17 -21 -11 -52 -55 -61 -57 -10
-127 42 -87 65 28 17 128 13 142 -4z m100 -320 c26 -32 -13 -81 -47 -59 -35
22 -23 74 17 74 10 0 23 -7 30 -15z m632 -182 c27 -25 22 -43 -12 -43 -19 0
-33 7 -40 20 -21 38 17 55 52 23z m-78 -269 c20 -20 20 -58 1 -78 -9 -8 -32
-18 -53 -21 -20 -3 -79 -12 -130 -21 -85 -15 -94 -15 -117 0 -31 20 -31 28 -2
61 49 58 261 99 301 59z m-525 -298 c30 -37 -40 -81 -229 -147 -243 -83 -400
-168 -640 -344 -141 -104 -219 -137 -234 -99 -22 57 146 187 481 368 337 184
582 271 622 222z m1935 -16 c40 -36 54 -76 32 -98 -21 -21 -80 -8 -106 25 -19
25 -27 82 -13 96 15 16 55 5 87 -23z m852 -335 c14 -21 16 -42 11 -118 -7
-110 -21 -161 -52 -193 -29 -29 -70 -31 -85 -5 -5 11 -10 38 -10 61 0 36 6 48
46 87 l46 45 -6 60 c-5 40 -3 64 5 74 16 20 26 18 45 -11z m-1379 -16 c84 -12
116 -24 110 -42 -6 -21 -71 -36 -245 -57 -225 -29 -398 -61 -632 -120 -107
-27 -216 -52 -242 -55 -46 -7 -48 -6 -48 17 0 30 29 58 95 91 127 63 424 141
650 170 65 9 238 6 312 -4z m582 -224 c23 -23 -10 -59 -91 -99 -103 -51 -186
-66 -393 -73 -183 -5 -250 2 -250 27 0 23 72 37 237 49 177 12 210 20 297 69
96 53 165 63 200 27z m161 -171 c0 -28 -49 -84 -74 -84 -23 0 -20 52 5 84 28
36 69 36 69 0z m355 -17 c14 -11 17 -23 13 -60 -10 -83 -76 -145 -252 -237
-111 -58 -146 -63 -146 -25 0 37 23 76 69 118 41 37 53 40 122 37 42 -2 51 7
79 83 16 42 31 64 54 78 37 23 37 23 61 6z m-4065 -116 c0 -45 -85 -203 -141
-266 -59 -63 -74 -69 -65 -22 9 48 111 249 145 286 37 40 61 41 61 2z m3267
-16 c7 -19 -21 -51 -61 -72 -45 -24 -167 -63 -193 -63 -31 0 -52 42 -33 65 15
18 74 50 129 70 52 20 150 19 158 0z m-4317 -65 c0 -23 -7 -55 -16 -73 -24
-45 -76 -117 -86 -117 -13 0 -9 83 6 135 17 53 50 95 78 95 14 0 18 -8 18 -40z
m1898 -36 c2 -22 -10 -49 -46 -104 -49 -76 -157 -200 -173 -200 -20 0 -6 50
40 146 76 158 171 242 179 158z m2710 15 c2 -9 -9 -31 -24 -48 -55 -65 -294
-155 -327 -122 -17 17 12 38 177 121 138 71 168 79 174 49z m-836 -15 c86 -44
-27 -72 -392 -95 -192 -12 -361 -32 -404 -48 -15 -6 -37 -11 -48 -11 -21 0
-21 1 3 26 50 54 155 87 375 119 246 36 409 39 466 9z m-1297 -143 c7 -12
-109 -126 -200 -196 -151 -116 -245 -136 -245 -53 0 72 160 177 365 239 73 21
72 21 80 10z m-2571 -103 c12 -19 -7 -63 -31 -72 -18 -7 -36 40 -28 72 7 27
41 27 59 0z m3026 -353 c29 -34 -67 -85 -161 -85 -57 0 -66 10 -36 37 60 56
169 82 197 48z m2438 -381 c18 -54 13 -288 -8 -328 -33 -64 -78 -59 -93 10 -9
44 6 188 29 279 25 96 49 109 72 39z m-4340 -450 c51 -35 14 -104 -56 -104
-33 0 -82 36 -82 60 0 6 11 22 25 35 28 29 79 33 113 9z m5136 -157 c25 -18
17 -55 -16 -80 -25 -19 -28 -19 -52 -4 -37 24 -43 57 -16 79 26 21 59 23 84 5z
m-5276 -469 c4 -37 -31 -57 -59 -32 -33 30 -15 67 31 62 19 -2 26 -10 28 -30z
m4968 -63 c11 -28 -113 -205 -143 -205 -17 0 -36 56 -28 82 12 37 44 78 88
109 44 32 75 37 83 14z m-1590 -399 c18 -14 18 -15 -9 -21 -15 -4 -39 -4 -53
-1 -36 9 -21 23 37 35 3 0 14 -5 25 -13z m-4 -166 c57 -45 59 -122 3 -136 -38
-9 -74 11 -91 51 -19 46 -18 61 6 85 25 25 50 25 82 0z m-3498 -2667 c19 -27
62 -94 96 -150 121 -203 341 -455 795 -908 345 -346 435 -425 596 -527 139
-87 230 -118 554 -189 132 -28 199 -60 232 -110 14 -22 37 -42 51 -46 14 -3
66 4 116 15 81 19 164 31 317 45 68 6 141 44 263 136 120 90 180 125 202 117
21 -8 -2 -58 -73 -159 -83 -117 -82 -138 14 -283 100 -152 104 -170 70 -342
-48 -246 -46 -294 11 -254 41 30 63 90 73 201 11 120 22 135 98 129 41 -4 59
-11 73 -28 24 -29 23 -87 -2 -152 -27 -71 -41 -133 -34 -152 9 -25 47 -19 90
14 43 32 79 38 88 14 18 -47 -57 -220 -134 -306 -57 -65 -101 -88 -163 -88
-28 0 -61 -9 -93 -26 -70 -37 -178 -126 -225 -187 -36 -46 -40 -56 -36 -91 17
-121 -81 -171 -363 -186 -91 -5 -181 -14 -201 -20 -23 -6 -51 -27 -78 -60 -37
-44 -47 -50 -80 -50 -100 0 -353 124 -621 305 -407 274 -551 387 -774 605
-295 289 -539 608 -849 1112 -306 498 -390 689 -367 836 12 74 44 123 151 237
125 133 129 143 128 348 0 158 11 247 31 247 6 0 25 -21 44 -47z m3906 -2343
c0 -24 -37 -63 -50 -55 -14 9 -12 49 2 63 19 19 48 15 48 -8z m-483 -782 c19
-16 15 -46 -7 -58 -30 -16 -185 -25 -194 -12 -7 12 71 70 112 82 30 10 70 4
89 -12z m-1409 -1310 c32 -32 -8 -80 -48 -58 -34 18 -19 70 20 70 9 0 21 -5
28 -12z"/>
<path d="M3655 8171 c-74 -19 -275 -139 -320 -192 -50 -60 -26 -69 101 -39
110 26 150 25 534 -11 415 -38 561 -63 668 -116 69 -33 78 -35 150 -31 112 7
172 42 172 102 0 45 -22 61 -110 76 -41 7 -136 32 -210 55 -160 50 -243 69
-405 90 -66 9 -201 29 -299 45 -182 30 -227 34 -281 21z"/>
<path d="M4269 7720 c-243 -45 -489 -119 -620 -187 -92 -47 -126 -74 -114 -94
13 -20 86 -2 180 46 156 79 179 65 215 -127 19 -99 61 -128 187 -128 111 0
189 53 117 80 -28 11 -28 11 29 87 21 29 45 71 51 95 7 23 20 47 29 52 24 16
88 -20 186 -103 109 -91 134 -94 91 -11 -11 22 -34 61 -50 87 -35 54 -38 97
-10 133 25 32 25 66 1 80 -30 15 -184 10 -292 -10z"/>
<path d="M7741 7060 c-36 -94 -37 -100 -11 -100 29 0 51 42 57 108 8 89 -10
85 -46 -8z"/>
<path d="M7463 6664 c-39 -19 -44 -44 -9 -44 24 0 76 34 76 51 0 14 -31 10
-67 -7z"/>
<path d="M6060 6276 c-19 -24 5 -56 40 -56 34 0 40 19 13 42 -30 26 -40 28
-53 14z"/>
<path d="M4559 6141 c-37 -38 -39 -94 -5 -166 52 -112 149 -185 266 -203 84
-13 167 -47 285 -117 128 -77 219 -108 315 -107 91 0 141 17 226 77 34 25 100
61 145 80 132 56 187 102 238 202 30 60 27 78 -21 128 -67 69 -73 66 -69 -41
3 -102 -13 -158 -51 -173 -13 -5 -52 -14 -88 -21 -35 -6 -125 -33 -200 -60
-200 -72 -245 -83 -311 -78 -51 4 -66 10 -118 50 -93 73 -156 100 -270 119
-87 13 -166 50 -218 101 -54 53 -67 92 -58 174 6 61 6 64 -15 64 -12 0 -35
-13 -51 -29z"/>
<path d="M6150 6149 c0 -14 56 -97 93 -136 34 -36 67 -44 67 -15 0 28 -52 104
-93 135 -37 28 -67 35 -67 16z"/>
<path d="M7445 6096 c-33 -28 -78 -65 -100 -83 l-40 -32 42 -1 c33 0 50 7 78
32 31 27 92 125 83 133 -2 1 -30 -20 -63 -49z"/>
<path d="M4078 6054 c-155 -106 -313 -228 -390 -304 -103 -102 -138 -173 -138
-282 0 -45 4 -78 10 -78 5 0 23 26 39 58 50 98 118 180 348 413 193 196 240
249 218 249 -2 0 -42 -25 -87 -56z"/>
<path d="M3809 5309 c-17 -32 -5 -106 21 -134 13 -13 40 -27 63 -31 81 -13
185 -71 353 -195 204 -150 324 -217 527 -293 209 -78 396 -98 582 -62 212 42
434 155 640 328 95 79 275 260 275 277 0 5 3 16 6 24 6 17 -32 57 -55 57 -9 0
-42 -18 -75 -40 -32 -22 -75 -45 -95 -50 -20 -6 -112 -15 -206 -19 -95 -5
-182 -14 -196 -21 -30 -14 -43 -35 -58 -95 -16 -61 -14 -75 12 -75 33 0 222
47 309 77 43 14 81 24 84 21 10 -11 -23 -62 -68 -105 -88 -84 -250 -174 -411
-228 -370 -123 -787 -63 -999 144 -37 37 -68 75 -68 85 0 17 67 53 163 87 20
7 37 16 37 19 0 3 -17 12 -37 19 -21 7 -64 25 -95 38 -65 29 -74 50 -33 77 14
9 25 21 25 26 0 6 -92 10 -244 10 -281 0 -337 7 -381 50 -37 35 -60 38 -76 9z"/>
<path d="M4600 5273 c-8 -2 -21 -7 -29 -9 -27 -9 10 -32 74 -48 67 -17 311
-36 432 -35 l78 1 -43 19 c-99 46 -445 95 -512 72z"/>
<path d="M4780 4100 c0 -6 42 -10 106 -10 67 0 103 4 99 10 -3 6 -50 10 -106
10 -59 0 -99 -4 -99 -10z"/>
</g>
</svg>
